<?xml version="1.0" encoding="utf-8"?>
<!-- Generator: Adobe Illustrator 19.2.1, SVG Export Plug-In . SVG Version: 6.00 Build 0)  -->
<svg version="1.1" id="layer" xmlns="http://www.w3.org/2000/svg"
	xmlns:xlink="http://www.w3.org/1999/xlink" x="0px" y="0px"
	viewBox="0 0 652 652" style="enable-background:new 0 0 652 652;" xml:space="preserve">
<style type="text/css">
	.st0{fill:#FFFFFF;}
	.st1{fill:#FF3333;}
</style>
<g id="Page-1">
	<g id="Group-3-Copy" transform="translate(-24.000000, -66.000000)">
		<g id="logo_x2F_og_x2F_DBS-blk" transform="translate(24.000000, 66.000000)">
			<g>
				<g id="Logomark">
					<polygon id="Fill-1" class="st0" points="49.4,379.4 163.7,379.4 163.7,264 49.4,264 					"/>
					<path class="st1" d="M160,375.8l-41.5-35.1c0,0-5.6-5.5-11.9-5.5c-6.4,0-12,5.5-12,5.5l-41.5,35.1l-0.1-0.1l34.8-41.9
						c0,0,5.5-5.7,5.5-12.1c0-6.4-5.5-12-5.5-12L53,267.7l0.1-0.1l41.5,35.2c0,0,5.6,5.6,12,5.6c6.3,0,11.9-5.6,11.9-5.6l41.5-35.2
						l0.2,0.2l-34.9,41.9c0,0-5.4,5.7-5.4,12c0,6.4,5.4,12.1,5.4,12.1l34.9,41.9L160,375.8z M179.4,321.7L179.4,321.7
						c0-11.4,0.5-21.5,8.8-39.4c2.4-5.2,7.7-12.8-0.1-21.6c-6.4-6.4-13.6-5.4-18.5-2.5c2.8-4.9,3.9-12.3-2.5-18.7
						c-8.7-7.9-16.3-2.5-21.4-0.1c-17.7,8.4-27.7,8.9-39,8.9c-11.3,0-21.4-0.5-39-8.9c-5.1-2.4-12.7-7.8-21.4,0.1
						c-6.4,6.5-5.3,13.8-2.5,18.7c-4.9-2.9-12.2-3.9-18.5,2.5c-7.9,8.8-2.5,16.4-0.1,21.6c8.4,17.9,8.9,28.1,8.9,39.4
						c0,11.4-0.5,21.6-8.9,39.5c-2.4,5.2-7.7,12.8,0.1,21.6c6.4,6.4,13.7,5.3,18.5,2.5c-2.8,4.9-3.9,12.3,2.5,18.7
						c8.7,8,16.3,2.6,21.4,0.1c17.7-8.4,27.7-8.9,39-8.9c11.3,0,21.3,0.4,39,8.9c5.1,2.4,12.7,7.8,21.4-0.1
						c6.4-6.4,5.3-13.7,2.5-18.7c4.9,2.8,12.1,3.9,18.5-2.5c7.9-8.8,2.5-16.5,0.1-21.6C179.8,343.3,179.4,333.1,179.4,321.7
						L179.4,321.7z"/>
				</g>
				<path id="DBS" d="M314.7,388.7c14.2-5.1,31.8-29.6,28.9-68.2c-2.8-37.3-16.9-66.6-54.4-69.4c0,0-7.1-0.5-13.1-0.5
					c-6.4,0-7.7-0.3-8.2,6.6c-0.8,12.9-1.1,113.3-0.2,127.8c0.1,2,0.3,6.8,8.5,7.6C291.1,394,303.5,392.8,314.7,388.7z M300.2,244.7
					c31.7-0.1,73.5,21.8,73.4,76.8c-0.1,47.8-34.3,77.2-65.8,77.2l-80.1,0l0.1-1.7c4.5-0.8,9.6-3.6,10.4-6.7
					c2.7-11.5,2-116.8,0.4-134.1c-0.5-5.4-4.7-8.9-9.9-9.8l-0.2-1.6C228.5,244.7,293,244.8,300.2,244.7z M475.7,360.9
					c0.6-33.1-23.4-41.9-48.2-43.2c-0.5,0-0.3-1.3,0.1-1.3c8.1-0.3,40.2-4.1,38.9-35.1c-1.3-30.2-24-30.9-32.3-31
					c-6.8-0.1-8.2-0.1-11.1,0.1c-4.8,0.2-6,0.6-6,5.8c0,0.7-1.1,54.4-1.7,92.2c-0.3,20.5-0.4,36.3-0.4,36.3c0.1,3.8-0.3,7.6,8.8,8
					c9.5,0.5,21.7,0.9,30.2-1C461.9,390.1,475.2,384.3,475.7,360.9z M465.9,316.5c37.3,9.3,39.6,36.6,39.1,44.2
					c-1.7,34.1-30.3,38-41.9,38H375l0.1-1.7c6.4-0.9,11.2-4.4,11.2-15.8l0.5-117.4c0.1-12.7-3.2-16.6-10.1-17.5l-0.2-1.6h66.6
					c12.2,0,49.1-2.5,52.2,31.7C497.9,303.8,468.1,315.3,465.9,316.5z M609.6,245.2l1.5,0l0.5,27.4l-1.7,0
					c-2.7-11.2-13.3-21.7-34.6-22.8c-25.2-1.3-36.1,13.8-36.2,28.2c-0.1,19.1,14.6,23,36.4,28.4c10.3,2.5,48.3,7.6,45.3,50.8
					c-2.1,30.2-27.9,44.5-64.4,43.4c0,0-15.2-0.5-36.4-6.4c-3.9-1.1-5,0.2-6.5,3.1l-1.7,0.1l0.1-29.6l1.7,0.1
					c0.8,3,1.1,8.6,6.4,13.3c3.9,3.5,13.1,12.1,33.3,12.3c19.8,0.3,36.2-8.2,38.4-30.6c0.6-6,0-19.9-13.4-26.2
					c-10.5-4.9-39.5-8.2-53.5-20.6c0,0-16.7-11.7-14.1-33.7c3.7-31,29.3-38.7,52.3-39.2c0,0,20.6-0.2,37,4.1c0,0,4,1.1,7.3-0.2
					C608.5,246.6,609.2,245.7,609.6,245.2L609.6,245.2z"/>
			</g>
		</g>
	</g>
</g>
</svg>