<?xml version="1.0" encoding="utf-8"?>
<!-- Generator: Adobe Illustrator 24.3.0, SVG Export Plug-In . SVG Version: 6.00 Build 0)  -->
<svg version="1.1" id="Layer_1" xmlns="http://www.w3.org/2000/svg" xmlns:xlink="http://www.w3.org/1999/xlink" x="0px" y="0px"
	 viewBox="0 0 512 512" style="enable-background:new 0 0 512 512;" xml:space="preserve">
<style type="text/css">
	.st0{fill:#FF9900;}
	.st1{fill:#012081;}
</style>
<g id="_x32_-Global-Elements">
	<g id="Artboard" transform="translate(-107.000000, -106.000000)">
		<g id="POSB-Nav" transform="translate(67.000000, 91.000000)">
			
				<g id="POSB-logo" transform="translate(86.000000, 34.500000) scale(1, -1) translate(-86.000000, -34.500000) translate(40.000000, 15.000000)">
				<g id="g1736" transform="translate(32.000000, 10.000000)">
					<path id="path1738" class="st0" d="M388.4-236.3V-254h19.1c5.2,0,11.1,2,11.1,8.9c0,7.4-8,8.9-13.4,8.9H388.4L388.4-236.3z
						 M388.4-204.3v-17.3h16.3c5.1,0,10.4,2.3,10.4,8.6c0,6.5-6,8.6-11.2,8.6H388.4L388.4-204.3z M374.6-268.8v78.6H402
						c13.2,0,27.6-2.9,27.6-20c0-8.8-4.5-14.8-12.3-17.3v-0.2c9.9-1.3,15.8-9,15.8-19.2c0-16.4-14.9-21.9-28.3-21.9H374.6
						L374.6-268.8z M240.5-229.5c0-14.7,9-25.3,22.8-25.3s22.8,10.6,22.8,25.3c0,14.7-9,25.3-22.8,25.3S240.5-214.8,240.5-229.5
						L240.5-229.5z M223.7-229.5c0,25.2,16.7,41.3,39.6,41.3s39.6-16.1,39.6-41.3c0-25.2-16.7-41.3-39.6-41.3
						S223.7-254.7,223.7-229.5L223.7-229.5z M174.2-204.3v-23.4h14.7c6.5,0,12.9,3.7,12.9,11.7c0,11-8.7,11.8-15.8,11.8H174.2
						L174.2-204.3z M157.9-268.8v78.6h28.9c17.3,0,31.7-5.7,31.7-25.9c0-20-13.3-26.1-30.8-26.1h-13.4v-26.5H157.9L157.9-268.8z
						 M361-190.2v-14.2h-29.9c-5,0-7.6-2.3-7.6-6c0-3.4,1.3-5,4.6-6.7c10-5.3,35.9-4.2,35.9-29.3c0-12.8-8-22.4-23.6-22.4l-31.9,0
						v14.8H338c2.4,0,9.4-0.1,9.4,7.5c0,6.2-4.1,7.5-8.7,9.1c-11.2,4-30.6,4.8-30.6,24.9c0,12.5,8.7,22.3,22.5,22.3H361L361-190.2z"
						/>
				</g>
				<g id="g1740">
					<path id="path1742" class="st1" d="M124.1-261.3c0,5.8,4.8,10.6,10.6,10.6c5.9,0,10.6-4.7,10.6-10.6c0-5.8-4.8-10.6-10.6-10.6
						C128.8-271.9,124.1-267.1,124.1-261.3L124.1-261.3z M76.2-172.9c-1,3.1-1.5,6.3-1.5,9.7c0,17.6,14.4,31.9,32,31.9
						c17.7,0,32.1-14.3,32.1-31.9c0-3.4-0.5-6.7-1.5-9.7c16.4-1.4,29.3-15.1,29.3-31.8c0-17.6-14.3-31.9-32-31.9
						c-5.6,0-10.9,1.4-15.5,4v-70h-12.3c-6.8,0-12.3,5.5-12.3,12.2v57.9c-4.6-2.5-9.9-4-15.5-4c-17.7,0-32.1,14.3-32.1,31.9
						C46.9-188,59.8-174.3,76.2-172.9L76.2-172.9z M122.9-204.7c0-6.4,5.3-11.7,11.7-11.7s11.7,5.2,11.7,11.7
						c0,6.4-5.3,11.7-11.7,11.7S122.9-198.3,122.9-204.7L122.9-204.7z M95.1-163.2c0-6.4,5.2-11.7,11.7-11.7
						c6.5,0,11.7,5.2,11.7,11.7c0,6.4-5.2,11.7-11.7,11.7C100.3-151.5,95.1-156.8,95.1-163.2L95.1-163.2z M67.3-204.7
						c0-6.4,5.2-11.7,11.7-11.7c6.5,0,11.7,5.2,11.7,11.7c0,6.4-5.2,11.7-11.7,11.7C72.5-193.1,67.3-198.3,67.3-204.7L67.3-204.7z
						 M124.1-287.4c0,5.8,4.8,10.6,10.6,10.6c5.9,0,10.6-4.7,10.6-10.6s-4.8-10.6-10.6-10.6C128.8-298,124.1-293.3,124.1-287.4
						L124.1-287.4z"/>
				</g>
			</g>
		</g>
	</g>
</g>
</svg>
