<svg xmlns="http://www.w3.org/2000/svg" xmlns:xlink="http://www.w3.org/1999/xlink" width="500" zoomAndPan="magnify" viewBox="0 0 375 374.999991" height="500" preserveAspectRatio="xMidYMid meet" version="1.0"><defs><g/><clipPath id="09b0333a7a"><path d="M 14.375 95.738281 L 87.125 95.738281 L 87.125 240.488281 L 14.375 240.488281 Z M 14.375 95.738281 " clip-rule="nonzero"/></clipPath></defs><rect x="-37.5" width="450" fill="#ffffff" y="-37.499999" height="449.999989" fill-opacity="0"/>
<rect x="-37.5" width="450" fill="#fcfbfa" y="-37.499999" height="449.999989" fill-opacity="0"/>
<g clip-path="url(#09b0333a7a)"><path fill="#012081" d="M 87.3125 115.71875 C 87.269531 111.015625 85.425781 106.445312 82.441406 102.84375 L 80.5 100.902344 C 77.976562 98.785156 75.015625 97.15625 71.796875 96.402344 C 69.089844 95.730469 66.285156 95.832031 63.519531 95.839844 C 53.898438 95.847656 44.28125 95.832031 34.660156 95.84375 C 29.851562 95.820312 25.140625 97.679688 21.460938 100.746094 L 19.511719 102.691406 C 16.328125 106.375 14.445312 111.167969 14.460938 116.042969 C 14.460938 125 14.433594 133.957031 14.476562 142.90625 C 14.53125 150.992188 20.015625 158.519531 27.523438 161.390625 C 27.417969 163.992188 27.460938 167.011719 29.691406 168.792969 C 31.519531 170.625 34.242188 170.492188 36.628906 170.445312 C 36.628906 174.484375 36.625 178.519531 36.628906 182.558594 C 34.835938 184.429688 32.875 186.140625 31.160156 188.085938 C 30.484375 188.757812 30.320312 189.925781 30.960938 190.671875 C 32.398438 192.453125 34.160156 193.933594 35.753906 195.570312 C 34.199219 197.175781 32.46875 198.621094 31.042969 200.355469 C 30.425781 201.03125 30.386719 202.148438 31 202.84375 C 32.425781 204.601562 34.179688 206.066406 35.753906 207.695312 C 34.175781 209.3125 32.425781 210.773438 31.003906 212.539062 C 30.351562 213.257812 30.441406 214.421875 31.101562 215.097656 C 32.824219 217.085938 34.816406 218.8125 36.640625 220.699219 C 36.621094 222.761719 36.554688 224.820312 36.746094 226.875 L 49.917969 240.046875 C 50.542969 239.980469 51.210938 239.828125 51.808594 240.125 L 64.925781 227.007812 C 65.226562 225.289062 65.21875 223.542969 65.175781 221.800781 C 65.175781 204.6875 65.171875 187.574219 65.179688 170.457031 C 67.726562 170.542969 70.644531 170.5 72.449219 168.386719 C 74.347656 166.578125 74.347656 163.816406 74.273438 161.390625 C 79.492188 159.320312 83.847656 155.132812 85.910156 149.890625 C 87.003906 147.160156 87.390625 144.203125 87.335938 141.273438 C 87.304688 132.757812 87.351562 124.238281 87.3125 115.71875 Z M 87.3125 115.71875 " fill-opacity="1" fill-rule="nonzero"/></g><g fill="#ff9900" fill-opacity="1"><g transform="translate(100.141155, 205.299322)"><g><path d="M 41.28125 1.671875 C 36.300781 1.671875 32.132812 0 28.78125 -3.34375 C 27.375 -4.832031 26.148438 -6.507812 25.109375 -8.375 C 24.585938 -6.726562 23.691406 -5.238281 22.421875 -3.90625 C 19.597656 -0.925781 15.472656 0.5625 10.046875 0.5625 L 8.921875 0.5625 L 8.921875 -74.75 L 2.234375 -76.4375 L 2.234375 -78.109375 L 16.734375 -78.109375 C 23.429688 -78.109375 26.78125 -74.757812 26.78125 -68.0625 L 26.78125 -53 C 27.96875 -53.96875 29.117188 -54.710938 30.234375 -55.234375 C 32.910156 -56.722656 36.035156 -57.46875 39.609375 -57.46875 C 47.117188 -57.46875 53.085938 -54.914062 57.515625 -49.8125 C 61.941406 -44.71875 64.15625 -37.410156 64.15625 -27.890625 C 64.15625 -21.566406 63.148438 -16.191406 61.140625 -11.765625 C 59.128906 -7.335938 56.410156 -3.988281 52.984375 -1.71875 C 49.566406 0.539062 45.664062 1.671875 41.28125 1.671875 Z M 36.828125 -2.234375 C 39.203125 -2.234375 41.1875 -4.109375 42.78125 -7.859375 C 44.382812 -11.617188 45.1875 -18.296875 45.1875 -27.890625 C 45.1875 -37.929688 44.3125 -44.8125 42.5625 -48.53125 C 40.8125 -52.25 38.335938 -54.109375 35.140625 -54.109375 C 33.210938 -54.109375 31.242188 -53.367188 29.234375 -51.890625 C 28.640625 -51.441406 27.820312 -50.695312 26.78125 -49.65625 L 26.78125 -11.15625 C 27.445312 -9.445312 28.265625 -7.957031 29.234375 -6.6875 C 31.460938 -3.71875 33.992188 -2.234375 36.828125 -2.234375 Z M 36.828125 -2.234375 "/></g></g></g><g fill="#ff9900" fill-opacity="1"><g transform="translate(168.761902, 205.299322)"><g><path d="M 4.46875 -1.671875 L 11.15625 -3.34375 L 11.15625 -74.75 L 4.46875 -76.4375 L 4.46875 -78.109375 L 18.96875 -78.109375 C 25.664062 -78.109375 29.015625 -74.757812 29.015625 -68.0625 L 29.015625 -3.34375 L 35.703125 -1.671875 L 35.703125 0 L 4.46875 0 Z M 4.46875 -1.671875 "/></g></g></g><g fill="#ff9900" fill-opacity="1"><g transform="translate(206.698569, 205.299322)"><g><path d="M 31.234375 1.671875 C 27.078125 1.671875 23.34375 0.796875 20.03125 -0.953125 C 16.71875 -2.703125 14.128906 -4.988281 12.265625 -7.8125 C 10.410156 -10.632812 9.484375 -13.609375 9.484375 -16.734375 L 9.484375 -52.4375 L 2.796875 -54.109375 L 2.796875 -55.796875 L 17.296875 -55.796875 C 23.992188 -55.796875 27.34375 -52.445312 27.34375 -45.75 L 27.34375 -16.734375 C 27.34375 -12.046875 28.175781 -8.457031 29.84375 -5.96875 C 31.519531 -3.476562 33.472656 -2.234375 35.703125 -2.234375 C 38.453125 -2.234375 40.945312 -3.71875 43.1875 -6.6875 C 44 -7.8125 44.851562 -9.300781 45.75 -11.15625 L 45.75 -52.4375 L 39.046875 -54.109375 L 39.046875 -55.796875 L 70.296875 -55.796875 L 70.296875 -54.109375 L 63.59375 -52.4375 L 63.59375 0.5625 L 62.484375 0.5625 C 57.054688 0.5625 52.925781 -0.925781 50.09375 -3.90625 C 48.832031 -5.238281 47.941406 -6.726562 47.421875 -8.375 C 46.378906 -6.507812 45.148438 -4.832031 43.734375 -3.34375 C 40.390625 0 36.222656 1.671875 31.234375 1.671875 Z M 31.234375 1.671875 "/></g></g></g><g fill="#ff9900" fill-opacity="1"><g transform="translate(279.224575, 205.299322)"><g><path d="M 34.59375 1.671875 C 25.070312 1.671875 17.671875 -0.945312 12.390625 -6.1875 C 7.109375 -11.4375 4.46875 -18.671875 4.46875 -27.890625 C 4.46875 -33.921875 5.617188 -39.164062 7.921875 -43.625 C 10.222656 -48.09375 13.4375 -51.515625 17.5625 -53.890625 C 21.695312 -56.273438 26.441406 -57.46875 31.796875 -57.46875 C 37.148438 -57.46875 41.851562 -56.460938 45.90625 -54.453125 C 49.96875 -52.441406 53.09375 -49.742188 55.28125 -46.359375 C 57.476562 -42.972656 58.578125 -39.234375 58.578125 -35.140625 C 58.578125 -33.285156 58.390625 -31.6875 58.015625 -30.34375 L 57.46875 -28.453125 C 54.269531 -27.785156 50.8125 -27.226562 47.09375 -26.78125 C 39.28125 -25.664062 31.394531 -25.109375 23.4375 -25.109375 C 23.4375 -16.472656 24.625 -10.3125 27 -6.625 C 29.382812 -2.945312 32.660156 -1.109375 36.828125 -1.109375 C 39.722656 -1.109375 42.414062 -1.796875 44.90625 -3.171875 C 47.394531 -4.554688 49.363281 -6.378906 50.8125 -8.640625 C 52.269531 -10.910156 53 -13.238281 53 -15.625 L 55.796875 -15.625 C 55.796875 -12.644531 54.898438 -9.816406 53.109375 -7.140625 C 51.328125 -4.460938 48.835938 -2.320312 45.640625 -0.71875 C 42.441406 0.875 38.757812 1.671875 34.59375 1.671875 Z M 23.4375 -27.890625 C 28.195312 -27.890625 32.0625 -28.078125 35.03125 -28.453125 C 36.300781 -28.523438 37.640625 -28.710938 39.046875 -29.015625 C 39.117188 -29.378906 39.304688 -30.195312 39.609375 -31.46875 C 39.984375 -33.320312 40.171875 -35.289062 40.171875 -37.375 C 40.171875 -43.550781 39.351562 -48.070312 37.71875 -50.9375 C 36.082031 -53.800781 34.109375 -55.234375 31.796875 -55.234375 C 26.222656 -55.234375 23.4375 -46.117188 23.4375 -27.890625 Z M 23.4375 -27.890625 "/></g></g></g><g fill="#ff9900" fill-opacity="1"><g transform="translate(341.708507, 205.299322)"><g><path d="M 13.390625 1.109375 C 11.160156 1.109375 9.207031 0.273438 7.53125 -1.390625 C 5.851562 -3.066406 5.015625 -5.019531 5.015625 -7.25 C 5.015625 -9.476562 5.851562 -11.429688 7.53125 -13.109375 C 9.207031 -14.785156 11.160156 -15.625 13.390625 -15.625 C 15.617188 -15.625 17.566406 -14.785156 19.234375 -13.109375 C 20.910156 -11.429688 21.75 -9.476562 21.75 -7.25 C 21.75 -5.019531 20.910156 -3.066406 19.234375 -1.390625 C 17.566406 0.273438 15.617188 1.109375 13.390625 1.109375 Z M 13.390625 1.109375 "/></g></g></g><g fill="#000000" fill-opacity="1"><g transform="translate(178.680737, 237.581875)"><g><path d="M 1.390625 -0.421875 L 3.0625 -0.84375 L 3.0625 -18.6875 L 1.390625 -19.109375 L 1.390625 -19.53125 L 8.921875 -19.53125 C 11.753906 -19.53125 13.832031 -19.078125 15.15625 -18.171875 C 16.488281 -17.265625 17.15625 -16.085938 17.15625 -14.640625 C 17.15625 -13.640625 16.863281 -12.832031 16.28125 -12.21875 C 15.707031 -11.601562 14.972656 -11.144531 14.078125 -10.84375 C 13.128906 -10.507812 12.109375 -10.332031 11.015625 -10.3125 L 11.015625 -10.1875 C 12.367188 -10.125 13.550781 -9.914062 14.5625 -9.5625 C 15.582031 -9.226562 16.429688 -8.707031 17.109375 -8 C 17.785156 -7.289062 18.125 -6.390625 18.125 -5.296875 C 18.125 -3.640625 17.445312 -2.34375 16.09375 -1.40625 C 14.738281 -0.46875 12.535156 0 9.484375 0 L 1.390625 0 Z M 8.921875 -10.59375 C 9.535156 -10.59375 10.109375 -10.765625 10.640625 -11.109375 C 11.171875 -11.453125 11.597656 -11.9375 11.921875 -12.5625 C 12.242188 -13.1875 12.40625 -13.878906 12.40625 -14.640625 C 12.40625 -15.460938 12.242188 -16.1875 11.921875 -16.8125 C 11.597656 -17.445312 11.171875 -17.941406 10.640625 -18.296875 C 10.109375 -18.648438 9.535156 -18.828125 8.921875 -18.828125 L 7.671875 -18.828125 L 7.671875 -10.59375 Z M 9.484375 -0.703125 C 10.640625 -0.703125 11.578125 -1.109375 12.296875 -1.921875 C 13.023438 -2.742188 13.390625 -3.867188 13.390625 -5.296875 C 13.390625 -6.734375 13.023438 -7.859375 12.296875 -8.671875 C 11.578125 -9.492188 10.640625 -9.90625 9.484375 -9.90625 L 7.671875 -9.90625 L 7.671875 -0.703125 Z M 9.484375 -0.703125 "/></g></g></g><g fill="#000000" fill-opacity="1"><g transform="translate(208.800538, 237.581875)"><g><path d="M -0.5625 -0.421875 L 1.671875 -1.25 L 9.34375 -19.796875 L 10.1875 -19.796875 L 18.125 -0.84375 L 19.53125 -0.421875 L 19.53125 0 L 16.171875 0 C 15.203125 0 14.410156 -0.21875 13.796875 -0.65625 C 13.191406 -1.09375 12.738281 -1.664062 12.4375 -2.375 L 11.015625 -5.71875 L 4.34375 -5.71875 L 2.515625 -1.25 L 4.609375 -0.421875 L 4.609375 0 L -0.5625 0 Z M 4.625 -6.421875 L 10.734375 -6.421875 L 7.671875 -13.75 Z M 4.625 -6.421875 "/></g></g></g><g fill="#000000" fill-opacity="1"><g transform="translate(238.920339, 237.581875)"><g><path d="M 3.90625 -14.78125 L 3.90625 -1.25 L 6.140625 -0.421875 L 6.140625 0 L 0.84375 0 L 0.84375 -0.421875 L 3.0625 -1.25 L 3.0625 -18.546875 L 1.109375 -19.109375 L 1.109375 -19.53125 L 4.046875 -19.53125 C 5.023438 -19.53125 5.796875 -19.351562 6.359375 -19 C 6.921875 -18.644531 7.453125 -18.171875 7.953125 -17.578125 L 16.875 -7.109375 L 16.875 -18.265625 L 14.640625 -19.109375 L 14.640625 -19.53125 L 19.9375 -19.53125 L 19.9375 -19.109375 L 17.703125 -18.265625 L 17.703125 0.421875 L 16.875 0.421875 Z M 3.90625 -14.78125 "/></g></g></g><g fill="#000000" fill-opacity="1"><g transform="translate(270.713132, 237.581875)"><g><path d="M 1.390625 -0.421875 L 3.0625 -0.84375 L 3.0625 -18.6875 L 1.390625 -19.109375 L 1.390625 -19.53125 L 9.34375 -19.53125 L 9.34375 -19.109375 L 7.671875 -18.6875 L 7.671875 -9.921875 L 14.5 -18.265625 L 12.40625 -19.109375 L 12.40625 -19.53125 L 17.703125 -19.53125 L 17.703125 -19.109375 L 15.484375 -18.265625 L 10.59375 -12.265625 L 18.125 -0.84375 L 19.53125 -0.421875 L 19.53125 0 L 15.625 0 C 14.78125 0 14.066406 -0.207031 13.484375 -0.625 C 12.898438 -1.039062 12.359375 -1.625 11.859375 -2.375 L 7.671875 -8.78125 L 7.671875 -0.84375 L 9.34375 -0.421875 L 9.34375 0 L 1.390625 0 Z M 1.390625 -0.421875 "/></g></g></g></svg>