<svg xmlns="http://www.w3.org/2000/svg" xmlns:xlink="http://www.w3.org/1999/xlink" width="500" zoomAndPan="magnify" viewBox="0 0 375 374.999991" height="500" preserveAspectRatio="xMidYMid meet" version="1.0"><defs><g/><clipPath id="3f243e396e"><path d="M 19 110.074219 L 138 110.074219 L 138 230.074219 L 19 230.074219 Z M 19 110.074219 " clip-rule="nonzero"/></clipPath><clipPath id="878ce98e5a"><path d="M 14.558594 130 L 63 130 L 63 205 L 14.558594 205 Z M 14.558594 130 " clip-rule="nonzero"/></clipPath></defs><g clip-path="url(#fefefe)"><path fill="#c82e37" d="M 65.980469 125.289062 L 65.648438 113.257812 C 66.152344 112.988281 66.507812 112.429688 66.507812 111.789062 C 66.507812 110.878906 65.820312 110.140625 64.972656 110.140625 C 64.121094 110.140625 63.441406 110.878906 63.441406 111.789062 C 63.441406 112.535156 63.90625 113.164062 64.550781 113.363281 L 64.550781 125.035156 C 64.351562 125 64.152344 124.964844 63.949219 124.929688 L 63.949219 114.210938 C 63.949219 114.210938 55.191406 111.816406 51.28125 116.535156 C 47.375 121.257812 45.675781 121.683594 42.949219 118.839844 C 42.949219 118.839844 43.578125 124.160156 49.015625 125.855469 C 53.460938 127.230469 58.859375 119.210938 63.949219 127.921875 L 63.949219 125.050781 C 64.074219 125.183594 64.277344 125.410156 64.550781 125.714844 L 64.550781 200.074219 C 60.652344 203.238281 55.992188 206.3125 50.449219 209.242188 C 50.449219 209.242188 56.371094 208.65625 64.550781 207.648438 L 64.550781 211.941406 C 52.34375 212.320312 38.050781 212.515625 21.34375 212.429688 C 21.34375 212.429688 19.445312 212.128906 19.5 215.371094 C 19.546875 218.605469 18.417969 230.101562 22.273438 230.101562 L 32.003906 230.101562 C 32.488281 229.808594 33.058594 229.582031 33.75 229.445312 C 37.371094 228.753906 41.804688 224.695312 45.566406 225.960938 C 47.277344 226.535156 48.957031 227.441406 50.585938 228.21875 C 52.296875 229.019531 54.25 229.21875 56.015625 229.902344 C 56.183594 229.960938 56.34375 230.03125 56.496094 230.101562 L 65.003906 230.101562 C 65.351562 229.953125 65.730469 229.835938 66.152344 229.746094 C 69.871094 229.011719 73.011719 226.429688 76.84375 226.160156 C 80.363281 225.914062 83.390625 228.320312 86.605469 229.445312 C 87.105469 229.621094 87.535156 229.84375 87.933594 230.101562 L 100 230.101562 C 100.070312 230.058594 100.140625 230.011719 100.210938 229.960938 C 101.730469 229.046875 103.429688 228.46875 104.984375 227.585938 C 106.707031 226.605469 108.4375 225.871094 110.464844 225.925781 C 112.921875 226 114.679688 227.472656 116.75 228.542969 C 117.652344 229.007812 118.628906 229.316406 119.636719 229.570312 C 122.554688 228.003906 130.34375 222.417969 134.183594 206.183594 C 134.183594 206.183594 135.789062 203.851562 129.902344 205.550781 C 125.4375 206.835938 109.410156 210.367188 68.363281 211.816406 L 68.238281 207.183594 C 80.667969 205.585938 96.578125 203.1875 105.480469 200.464844 C 121.5625 195.550781 136.839844 201.550781 137.378906 204.933594 C 137.378906 204.9375 140.316406 138.945312 65.980469 125.289062 Z M 67.960938 197.109375 L 66.039062 127.453125 C 73.730469 136.757812 97.136719 169.78125 67.960938 197.109375 Z M 67.960938 197.109375 " fill-opacity="1" fill-rule="nonzero"/></g><g clip-path="url(#878ce98e5a)"><path fill="#c82e37" d="M 62.613281 199.867188 L 62.613281 130.691406 C 33.5 199.671875 14.558594 199.867188 14.558594 199.867188 C 21.546875 210.03125 62.613281 199.867188 62.613281 199.867188 Z M 62.613281 199.867188 " fill-opacity="1" fill-rule="nonzero"/></g><g fill="#c82e37" fill-opacity="1"><g transform="translate(154.555582, 199.899415)"><g><path d="M 4.234375 -1.59375 L 10.59375 -3.171875 L 10.59375 -49.765625 L 4.234375 -51.34375 L 4.234375 -52.9375 L 13.765625 -52.9375 C 17.929688 -52.9375 21.210938 -51.597656 23.609375 -48.921875 C 24.523438 -47.859375 25.300781 -46.550781 25.9375 -45 C 27 -46.550781 28.304688 -47.960938 29.859375 -49.234375 C 33.390625 -52.054688 37.34375 -53.46875 41.71875 -53.46875 C 45.457031 -53.46875 48.257812 -52.601562 50.125 -50.875 C 52 -49.144531 52.9375 -46.65625 52.9375 -43.40625 C 52.9375 -41.007812 52.210938 -39.085938 50.765625 -37.640625 C 49.316406 -36.191406 47.394531 -35.46875 45 -35.46875 C 44.007812 -35.46875 43.019531 -35.539062 42.03125 -35.6875 L 40.765625 -36 L 40.765625 -50.8125 C 37.160156 -50.8125 33.878906 -49.398438 30.921875 -46.578125 C 29.503906 -45.171875 28.375 -43.757812 27.53125 -42.34375 L 27.53125 -3.171875 L 33.875 -1.59375 L 33.875 0 L 4.234375 0 Z M 4.234375 -1.59375 "/></g></g></g><g fill="#c82e37" fill-opacity="1"><g transform="translate(208.020065, 199.899415)"><g><path d="M 32.828125 1.59375 C 23.785156 1.59375 16.757812 -0.894531 11.75 -5.875 C 6.738281 -10.851562 4.234375 -17.71875 4.234375 -26.46875 C 4.234375 -32.1875 5.328125 -37.160156 7.515625 -41.390625 C 9.703125 -45.628906 12.753906 -48.878906 16.671875 -51.140625 C 20.585938 -53.398438 25.085938 -54.53125 30.171875 -54.53125 C 35.253906 -54.53125 39.71875 -53.578125 43.5625 -51.671875 C 47.414062 -49.765625 50.378906 -47.203125 52.453125 -43.984375 C 54.535156 -40.773438 55.578125 -37.226562 55.578125 -33.34375 C 55.578125 -31.582031 55.40625 -30.066406 55.0625 -28.796875 L 54.53125 -27 C 51.488281 -26.363281 48.203125 -25.832031 44.671875 -25.40625 C 37.265625 -24.351562 29.785156 -23.828125 22.234375 -23.828125 C 22.234375 -15.640625 23.363281 -9.796875 25.625 -6.296875 C 27.882812 -2.804688 30.988281 -1.0625 34.9375 -1.0625 C 37.6875 -1.0625 40.242188 -1.710938 42.609375 -3.015625 C 44.972656 -4.316406 46.84375 -6.046875 48.21875 -8.203125 C 49.601562 -10.359375 50.296875 -12.566406 50.296875 -14.828125 L 52.9375 -14.828125 C 52.9375 -12.003906 52.085938 -9.320312 50.390625 -6.78125 C 48.703125 -4.238281 46.335938 -2.207031 43.296875 -0.6875 C 40.265625 0.832031 36.773438 1.59375 32.828125 1.59375 Z M 22.234375 -26.46875 C 26.753906 -26.46875 30.425781 -26.644531 33.25 -27 C 34.445312 -27.070312 35.71875 -27.25 37.0625 -27.53125 C 37.125 -27.882812 37.296875 -28.660156 37.578125 -29.859375 C 37.929688 -31.617188 38.109375 -33.488281 38.109375 -35.46875 C 38.109375 -41.320312 37.332031 -45.609375 35.78125 -48.328125 C 34.226562 -51.046875 32.359375 -52.40625 30.171875 -52.40625 C 24.878906 -52.40625 22.234375 -43.757812 22.234375 -26.46875 Z M 22.234375 -26.46875 "/></g></g></g><g fill="#c82e37" fill-opacity="1"><g transform="translate(267.307415, 199.899415)"><g><path d="M 25.9375 1.59375 C 21.769531 1.59375 18.0625 0.515625 14.8125 -1.640625 C 11.570312 -3.796875 9 -6.972656 7.09375 -11.171875 C 5.1875 -15.367188 4.234375 -20.46875 4.234375 -26.46875 C 4.234375 -35.5 6.332031 -42.429688 10.53125 -47.265625 C 14.726562 -52.109375 20.394531 -54.53125 27.53125 -54.53125 C 30.914062 -54.53125 33.878906 -53.820312 36.421875 -52.40625 C 37.484375 -51.914062 38.578125 -51.210938 39.703125 -50.296875 L 39.703125 -70.9375 L 33.34375 -72.53125 L 33.34375 -74.109375 L 47.109375 -74.109375 C 53.460938 -74.109375 56.640625 -70.929688 56.640625 -64.578125 L 56.640625 -3.171875 L 63 -1.59375 L 63 0 L 53.46875 0 C 49.226562 0 45.945312 -1.304688 43.625 -3.921875 C 42.632812 -4.972656 41.859375 -6.3125 41.296875 -7.9375 C 40.378906 -6.175781 39.210938 -4.585938 37.796875 -3.171875 C 34.617188 0.00390625 30.664062 1.59375 25.9375 1.59375 Z M 30.171875 -2.125 C 32.785156 -2.125 35.148438 -3.535156 37.265625 -6.359375 C 38.046875 -7.410156 38.859375 -8.820312 39.703125 -10.59375 L 39.703125 -47.109375 C 38.921875 -47.890625 38.109375 -48.597656 37.265625 -49.234375 C 35.359375 -50.640625 33.523438 -51.34375 31.765625 -51.34375 C 28.722656 -51.34375 26.375 -49.578125 24.71875 -46.046875 C 23.0625 -42.523438 22.234375 -36 22.234375 -26.46875 C 22.234375 -17.363281 22.988281 -11.03125 24.5 -7.46875 C 26.019531 -3.90625 27.910156 -2.125 30.171875 -2.125 Z M 30.171875 -2.125 "/></g></g></g><g fill="#c82e37" fill-opacity="1"><g transform="translate(332.946995, 199.899415)"><g><path d="M 12.703125 1.0625 C 10.585938 1.0625 8.734375 0.269531 7.140625 -1.3125 C 5.554688 -2.90625 4.765625 -4.757812 4.765625 -6.875 C 4.765625 -9 5.554688 -10.851562 7.140625 -12.4375 C 8.734375 -14.03125 10.585938 -14.828125 12.703125 -14.828125 C 14.816406 -14.828125 16.664062 -14.03125 18.25 -12.4375 C 19.84375 -10.851562 20.640625 -9 20.640625 -6.875 C 20.640625 -4.757812 19.84375 -2.90625 18.25 -1.3125 C 16.664062 0.269531 14.816406 1.0625 12.703125 1.0625 Z M 12.703125 1.0625 "/></g></g></g><g fill="#000000" fill-opacity="1"><g transform="translate(203.662119, 230.53044)"><g><path d="M 1.328125 -0.390625 L 2.90625 -0.796875 L 2.90625 -17.734375 L 1.328125 -18.125 L 1.328125 -18.53125 L 8.46875 -18.53125 C 11.15625 -18.53125 13.128906 -18.097656 14.390625 -17.234375 C 15.648438 -16.378906 16.28125 -15.265625 16.28125 -13.890625 C 16.28125 -12.941406 16.003906 -12.175781 15.453125 -11.59375 C 14.910156 -11.007812 14.210938 -10.578125 13.359375 -10.296875 C 12.460938 -9.972656 11.492188 -9.804688 10.453125 -9.796875 L 10.453125 -9.65625 C 11.742188 -9.601562 12.863281 -9.410156 13.8125 -9.078125 C 14.78125 -8.765625 15.585938 -8.269531 16.234375 -7.59375 C 16.878906 -6.925781 17.203125 -6.070312 17.203125 -5.03125 C 17.203125 -3.457031 16.554688 -2.222656 15.265625 -1.328125 C 13.984375 -0.441406 11.894531 0 9 0 L 1.328125 0 Z M 8.46875 -10.0625 C 9.050781 -10.0625 9.59375 -10.222656 10.09375 -10.546875 C 10.601562 -10.867188 11.007812 -11.328125 11.3125 -11.921875 C 11.625 -12.515625 11.78125 -13.171875 11.78125 -13.890625 C 11.78125 -14.671875 11.625 -15.359375 11.3125 -15.953125 C 11.007812 -16.554688 10.601562 -17.023438 10.09375 -17.359375 C 9.59375 -17.691406 9.050781 -17.859375 8.46875 -17.859375 L 7.28125 -17.859375 L 7.28125 -10.0625 Z M 9 -0.65625 C 10.09375 -0.65625 10.984375 -1.039062 11.671875 -1.8125 C 12.359375 -2.59375 12.703125 -3.664062 12.703125 -5.03125 C 12.703125 -6.382812 12.359375 -7.445312 11.671875 -8.21875 C 10.984375 -9 10.09375 -9.390625 9 -9.390625 L 7.28125 -9.390625 L 7.28125 -0.65625 Z M 9 -0.65625 "/></g></g></g><g fill="#000000" fill-opacity="1"><g transform="translate(232.241037, 230.53044)"><g><path d="M -0.53125 -0.390625 L 1.59375 -1.1875 L 8.859375 -18.796875 L 9.65625 -18.796875 L 17.203125 -0.796875 L 18.53125 -0.390625 L 18.53125 0 L 15.359375 0 C 14.429688 0 13.675781 -0.207031 13.09375 -0.625 C 12.519531 -1.039062 12.09375 -1.582031 11.8125 -2.25 L 10.453125 -5.421875 L 4.125 -5.421875 L 2.375 -1.1875 L 4.375 -0.390625 L 4.375 0 L -0.53125 0 Z M 4.390625 -6.09375 L 10.1875 -6.09375 L 7.28125 -13.046875 Z M 4.390625 -6.09375 "/></g></g></g><g fill="#000000" fill-opacity="1"><g transform="translate(260.819955, 230.53044)"><g><path d="M 3.703125 -14.03125 L 3.703125 -1.1875 L 5.828125 -0.390625 L 5.828125 0 L 0.796875 0 L 0.796875 -0.390625 L 2.90625 -1.1875 L 2.90625 -17.609375 L 1.0625 -18.125 L 1.0625 -18.53125 L 3.84375 -18.53125 C 4.769531 -18.53125 5.5 -18.359375 6.03125 -18.015625 C 6.5625 -17.679688 7.066406 -17.234375 7.546875 -16.671875 L 16.015625 -6.75 L 16.015625 -17.34375 L 13.890625 -18.125 L 13.890625 -18.53125 L 18.921875 -18.53125 L 18.921875 -18.125 L 16.8125 -17.34375 L 16.8125 0.390625 L 16.015625 0.390625 Z M 3.703125 -14.03125 "/></g></g></g><g fill="#000000" fill-opacity="1"><g transform="translate(290.986277, 230.53044)"><g><path d="M 1.328125 -0.390625 L 2.90625 -0.796875 L 2.90625 -17.734375 L 1.328125 -18.125 L 1.328125 -18.53125 L 8.859375 -18.53125 L 8.859375 -18.125 L 7.28125 -17.734375 L 7.28125 -9.421875 L 13.765625 -17.34375 L 11.78125 -18.125 L 11.78125 -18.53125 L 16.8125 -18.53125 L 16.8125 -18.125 L 14.6875 -17.34375 L 10.0625 -11.640625 L 17.203125 -0.796875 L 18.53125 -0.390625 L 18.53125 0 L 14.828125 0 C 14.023438 0 13.347656 -0.195312 12.796875 -0.59375 C 12.242188 -0.988281 11.726562 -1.539062 11.25 -2.25 L 7.28125 -8.34375 L 7.28125 -0.796875 L 8.859375 -0.390625 L 8.859375 0 L 1.328125 0 Z M 1.328125 -0.390625 "/></g></g></g></svg>